<?xml version="1.0" standalone="no"?>
<!DOCTYPE svg PUBLIC "-//W3C//DTD SVG 20010904//EN"
 "http://www.w3.org/TR/2001/REC-SVG-20010904/DTD/svg10.dtd">
<svg version="1.0" xmlns="http://www.w3.org/2000/svg"
 width="114.000000pt" height="114.000000pt" viewBox="0 0 114.000000 114.000000"
 preserveAspectRatio="xMidYMid meet">
<metadata>
Created by potrace 1.11, written by Peter Selinger 2001-2013
</metadata>
<g transform="translate(0.000000,114.000000) scale(0.100000,-0.100000)"
fill="#000000" stroke="none">
<path d="M1 570 l-1 -380 190 0 c241 -1 485 -1 743 0 l202 0 0 378 0 377 -262
3 -263 2 0 -190 0 -190 -35 0 -35 0 0 190 0 190 -269 0 -268 0 -2 -380z m829
238 c35 -38 25 -100 -21 -123 -34 -18 -69 -8 -93 27 -22 30 -20 60 5 92 27 34
79 36 109 4z m-455 -430 l0 -178 -182 0 -183 0 0 180 0 180 183 -2 182 -3 0
-177z m375 2 l0 -180 -180 0 -180 0 0 180 0 180 180 0 180 0 0 -180z m375 0
l0 -180 -180 2 -180 3 0 178 0 177 180 0 180 0 0 -180z"/>
<path d="M148 444 c-51 -27 -53 -115 -5 -149 61 -43 142 1 142 77 0 71 -70
109 -137 72z"/>
</g>
</svg>
