<?xml version="1.0" standalone="no"?>
<!DOCTYPE svg PUBLIC "-//W3C//DTD SVG 20010904//EN"
 "http://www.w3.org/TR/2001/REC-SVG-20010904/DTD/svg10.dtd">
<svg version="1.0" xmlns="http://www.w3.org/2000/svg"
 width="133.000000pt" height="133.000000pt" viewBox="0 0 133.000000 133.000000"
 preserveAspectRatio="xMidYMid meet">
<metadata>
Created by potrace 1.11, written by Peter Selinger 2001-2013
</metadata>
<g transform="translate(0.000000,133.000000) scale(0.100000,-0.100000)"
fill="#000000" stroke="none">
<path d="M65 1311 c-11 -5 -29 -19 -40 -31 -20 -22 -20 -36 -20 -611 l0 -589
28 -27 27 -28 605 0 605 0 27 28 28 27 0 590 0 590 -28 27 -27 28 -593 2
c-325 1 -601 -2 -612 -6z m389 -168 c127 -90 121 -282 -12 -360 -89 -53 -216
-30 -275 49 -86 116 -49 269 78 330 60 28 154 20 209 -19z m146 -493 c19 -19
20 -33 20 -265 0 -232 -1 -246 -20 -265 -19 -19 -33 -20 -265 -20 -232 0 -246
1 -265 20 -19 19 -20 33 -20 265 0 232 1 246 20 265 19 19 33 20 265 20 232 0
246 -1 265 -20z m660 0 c19 -19 20 -33 20 -265 0 -232 -1 -246 -20 -265 -19
-19 -33 -20 -265 -20 -232 0 -246 1 -265 20 -19 19 -20 33 -20 265 0 232 1
246 20 265 19 19 33 20 265 20 232 0 246 -1 265 -20z"/>
<path d="M255 1141 c-135 -62 -154 -243 -35 -330 178 -129 398 91 269 269 -54
74 -151 99 -234 61z"/>
</g>
</svg>
